<svg height="682pt" viewBox="-21 -21 682 682.66847" width="682pt" xmlns="http://www.w3.org/2000/svg"><path d="m116.277344 487.972656c-5.695313-.03125-10.945313-3.085937-13.78125-8.023437-2.84375-4.933594-2.847656-11.007813-.011719-15.945313 27.734375-48.707031 123.828125-213.136718 194.867187-284.167968 50.136719-50.128907 74.0625-65.652344 94.753907-61.375 19.378906 3.980468 28.980469 24.53125 40.445312 53.171874 38.402344 96-52.4375 174.65625-109.96875 213.019532-62.929687 41.347656-130.21875 75.648437-200.648437 102.285156-1.8125.679688-3.726563 1.03125-5.65625 1.035156zm269.457031-348.773437c-15.484375 0-47.089844 29.554687-73.300781 55.765625-63.835938 63.828125-149.554688 207.078125-183.921875 266.597656 63.8125-25.238281 124.871093-56.949219 182.21875-94.625 91.378906-60.925781 126.644531-125.703125 101.980469-187.34375-8.050782-20.140625-16-38.402344-24.917969-40.207031-.675781-.125-1.367188-.195313-2.058594-.1875zm0 0"/><path d="m270.613281 640c-12.949219 0-22.207031-14.785156-35.09375-85.671875-14.035156-77.054687-7.53125-118.472656.382813-139.636719 1.273437-3.652344 4.421875-6.320312 8.230468-6.992187 3.808594-.664063 7.683594.78125 10.117188 3.785156 2.4375 2.996094 3.0625 7.085937 1.632812 10.671875-6.976562 18.667969-12.535156 56.074219.617188 128.355469 3.140625 19.367187 7.574219 38.503906 13.269531 57.289062.511719-2.734375.8125-5.503906.90625-8.277343 0-14.390626 11.5625-146.507813 54.769531-241.066407 2.496094-5.277343 8.769532-7.566406 14.078126-5.140625 5.3125 2.421875 7.683593 8.667969 5.328124 14.003906-41.34375 90.53125-52.84375 220.371094-52.84375 232.242188 0 .386719-.53125 38.675781-19.710937 40.40625-.566406.03125-1.132813.03125-1.683594.03125zm0 0"/><path d="m223.410156 300.808594h-.753906c-5.875-.417969-10.304688-5.519532-9.890625-11.394532 4.589844-73.871093 27.300781-145.46875 66.132813-208.476562 1.59375-2.386719 3.070312-4.621094 4.691406-6.851562 2.96875-4.261719 6.160156-8.53125 9.484375-12.796876 19.28125-25.808593 45.652343-45.449218 75.90625-56.53125 26.8125-8.535156 61.585937-7.671874 78.613281 20.148438 1.019531 1.617188 1.929688 3.308594 2.71875 5.054688 5.804688 11.90625 9.015625 24.90625 9.40625 38.144531.476562 8.394531.316406 16.8125-.488281 25.183593-1.007813 11.148438-3.386719 22.128907-7.085938 32.691407-5.851562 17.269531-19.683593 30.644531-37.140625 35.914062-3.664062 1.035157-7.609375.03125-10.339844-2.625-2.730468-2.660156-3.832031-6.570312-2.894531-10.265625.9375-3.691406 3.773438-6.609375 7.445313-7.644531 10.886718-3.378906 19.441406-11.867187 22.898437-22.738281 3.085938-8.871094 5.066407-18.089844 5.890625-27.445313.6875-7.25.828125-14.539062.425782-21.8125-.304688-10.421875-2.785157-20.660156-7.285157-30.070312-.484375-1.074219-1.046875-2.113281-1.675781-3.109375-13.742188-22.488282-47.464844-13.191406-54.058594-11.085938-26.183594 9.816406-48.976562 26.988282-65.632812 49.449219-3.0625 3.839844-5.972656 7.777344-8.789063 11.820313-1.558593 2.132812-2.898437 4.167968-4.261719 6.175781-36.851562 59.960937-58.378906 128.066406-62.691406 198.308593-.375 5.59375-5.019531 9.945313-10.625 9.957032zm0 0"/><path d="m410.855469 405.335938h-82.421875c-5.886719 0-10.664063-4.773438-10.664063-10.664063s4.777344-10.667969 10.664063-10.667969h64.429687c-10.304687-12.710937-23.742187-22.515625-38.988281-28.445312-3.621094-1.207032-6.324219-4.253906-7.085938-7.996094-.765624-3.734375.515626-7.59375 3.375-10.128906 2.855469-2.53125 6.84375-3.351563 10.460938-2.144532 19.46875 6.484376 51.050781 28.148438 60.332031 55.980469 1.09375 3.253907.558594 6.835938-1.445312 9.625-2 2.789063-5.222657 4.441407-8.65625 4.441407zm0 0"/><path d="m506.414062 120.074219c-5.148437 0-10.003906-2.410157-13.128906-6.511719l-1.34375-1.683594c-1.878906-2.359375-3.734375-4.703125-5.769531-6.910156-11.632813-13.246094-25.765625-24.050781-41.601563-31.796875-3.425781-1.671875-5.707031-5.046875-5.972656-8.851563-.265625-3.808593 1.515625-7.464843 4.679688-9.597656 3.160156-2.132812 7.222656-2.421875 10.648437-.753906 18.050781 8.792969 34.1875 21.066406 47.480469 36.117188l.253906.261718v-23.035156c-.011718-13.601562-11.035156-24.625-24.640625-24.636719h-37.546875c-5.886718 0-10.664062-4.773437-10.664062-10.667969 0-5.890624 4.777344-10.664062 10.664062-10.664062h37.546875c25.378907.035156 45.9375 20.59375 45.972657 45.96875v36.164062c-.003907 9.15625-7.421876 16.578126-16.578126 16.597657zm3.585938-19.800781.085938.105468zm0 0"/><path d="m440.003906 138.246094c-5.578125.074218-10.277344-4.175782-10.761718-9.742188-.480469-5.558594 3.40625-10.554687 8.917968-11.449218 19.34375-5.839844 38.058594-13.589844 55.871094-23.125 3.414062-1.699219 7.472656-1.445313 10.652344.660156 3.171875 2.105468 4.984375 5.746094 4.75 9.550781s-2.484375 7.191406-5.898438 8.890625c-19.433594 10.445312-39.921875 18.804688-61.117187 24.941406-.792969.179688-1.597657.273438-2.414063.273438zm0 0"/><path d="m416.328125 85.339844c0 5.894531-4.773437 10.671875-10.667969 10.671875-5.890625 0-10.664062-4.777344-10.664062-10.671875 0-5.886719 4.773437-10.664063 10.664062-10.664063 5.894532 0 10.667969 4.777344 10.667969 10.664063zm0 0"/><path d="m214.730469 445.335938h-.109375c-5.878906-.027344-10.625-4.8125-10.609375-10.691407.015625-5.878906 4.785156-10.640625 10.664062-10.640625 5.878907 0 10.65625 4.761719 10.667969 10.640625.015625 5.878907-4.734375 10.664063-10.613281 10.691407zm0 0"/><path d="m602.992188 458.671875h-296.953126c-5.894531 0-10.671874-4.777344-10.671874-10.667969s4.777343-10.664062 10.671874-10.664062h296.953126c8.835937 0 16-7.164063 16-16.003906 0-8.835938-7.164063-16-16-16h-280.636719c-5.894531 0-10.667969-4.773438-10.667969-10.664063s4.773438-10.667969 10.667969-10.667969h280.636719c20.617187 0 37.332031 16.714844 37.332031 37.332032 0 20.621093-16.714844 37.335937-37.332031 37.335937zm0 0"/><path d="m124.0625 458.671875h-86.394531c-20.621094 0-37.335938-16.714844-37.335938-37.335937 0-20.617188 16.714844-37.332032 37.335938-37.332032h118.179687c5.894532 0 10.671875 4.777344 10.671875 10.667969s-4.777343 10.664063-10.671875 10.664063h-118.179687c-8.839844 0-16 7.164062-16 16 0 8.839843 7.160156 16.003906 16 16.003906h86.394531c5.894531 0 10.667969 4.773437 10.667969 10.664062s-4.773438 10.667969-10.667969 10.667969zm0 0"/><path d="m365.984375 145.820312c-3.039063 0-5.929687-1.300781-7.949219-3.5625-10.78125-12.042968-24.179687-27.046874-23.40625-48.917968 1.535156-19.417969 12.136719-36.980469 28.609375-47.378906 20.71875-14.359376 43.835938-24.890626 68.265625-31.101563 5.644532-1.699219 11.597656 1.492187 13.296875 7.136719 1.699219 5.644531-1.496093 11.597656-7.140625 13.296875-21.984375 5.519531-42.820312 14.878906-61.546875 27.652343-11.21875 6.644532-18.683593 18.164063-20.167969 31.121094-.417968 12.394532 6.835938 21.503906 17.980469 33.941406 2.808594 3.132813 3.511719 7.625 1.792969 11.46875-1.71875 3.835938-5.53125 6.3125-9.734375 6.3125zm0 0"/></svg>